<mxfile host="app.diagrams.net" agent="Mozilla/5.0 (Windows NT 10.0; Win64; x64; rv:132.0) Gecko/20100101 Firefox/132.0" version="24.9.3">
  <diagram id="C5RBs43oDa-KdzZeNtuy" name="Page-1">
    <mxGraphModel dx="467" dy="689" grid="1" gridSize="10" guides="1" tooltips="1" connect="1" arrows="1" fold="1" page="1" pageScale="1" pageWidth="827" pageHeight="1169" math="0" shadow="0">
      <root>
        <mxCell id="WIyWlLk6GJQsqaUBKTNV-0" />
        <mxCell id="WIyWlLk6GJQsqaUBKTNV-1" parent="WIyWlLk6GJQsqaUBKTNV-0" />
        <mxCell id="uX4t5nVAF5KKWgH_RehO-12" style="edgeStyle=orthogonalEdgeStyle;rounded=0;orthogonalLoop=1;jettySize=auto;html=1;exitX=0.5;exitY=1;exitDx=0;exitDy=0;entryX=0.5;entryY=0;entryDx=0;entryDy=0;" edge="1" parent="WIyWlLk6GJQsqaUBKTNV-1" source="b5z2Wnowq-uhxzEn1UQt-0" target="uX4t5nVAF5KKWgH_RehO-11">
          <mxGeometry relative="1" as="geometry" />
        </mxCell>
        <mxCell id="b5z2Wnowq-uhxzEn1UQt-0" value="Start" style="ellipse;whiteSpace=wrap;html=1;" parent="WIyWlLk6GJQsqaUBKTNV-1" vertex="1">
          <mxGeometry x="354" y="140" width="120" height="70" as="geometry" />
        </mxCell>
        <mxCell id="uX4t5nVAF5KKWgH_RehO-1" value="&lt;div&gt;Batteri skal&amp;nbsp;&lt;/div&gt;&lt;div&gt;være fuldt&amp;nbsp;&lt;/div&gt;&lt;div&gt;opladt&lt;/div&gt;" style="strokeWidth=2;html=1;shape=mxgraph.flowchart.annotation_2;align=left;labelPosition=right;pointerEvents=1;" vertex="1" parent="WIyWlLk6GJQsqaUBKTNV-1">
          <mxGeometry x="480" y="125" width="50" height="100" as="geometry" />
        </mxCell>
        <mxCell id="uX4t5nVAF5KKWgH_RehO-6" value="" style="edgeStyle=orthogonalEdgeStyle;rounded=0;orthogonalLoop=1;jettySize=auto;html=1;" edge="1" parent="WIyWlLk6GJQsqaUBKTNV-1" source="uX4t5nVAF5KKWgH_RehO-4" target="uX4t5nVAF5KKWgH_RehO-5">
          <mxGeometry relative="1" as="geometry" />
        </mxCell>
        <mxCell id="uX4t5nVAF5KKWgH_RehO-4" value="&lt;div&gt;Opdater display med batteri-%&lt;/div&gt;" style="rounded=0;whiteSpace=wrap;html=1;" vertex="1" parent="WIyWlLk6GJQsqaUBKTNV-1">
          <mxGeometry x="354" y="530" width="120" height="60" as="geometry" />
        </mxCell>
        <mxCell id="uX4t5nVAF5KKWgH_RehO-18" style="edgeStyle=orthogonalEdgeStyle;rounded=0;orthogonalLoop=1;jettySize=auto;html=1;exitX=1;exitY=0.5;exitDx=0;exitDy=0;entryX=1;entryY=0.5;entryDx=0;entryDy=0;" edge="1" parent="WIyWlLk6GJQsqaUBKTNV-1" source="uX4t5nVAF5KKWgH_RehO-5" target="uX4t5nVAF5KKWgH_RehO-13">
          <mxGeometry relative="1" as="geometry">
            <Array as="points">
              <mxPoint x="520" y="640" />
              <mxPoint x="520" y="360" />
            </Array>
          </mxGeometry>
        </mxCell>
        <mxCell id="uX4t5nVAF5KKWgH_RehO-5" value="Vent 1 minut" style="shape=delay;whiteSpace=wrap;html=1;" vertex="1" parent="WIyWlLk6GJQsqaUBKTNV-1">
          <mxGeometry x="374" y="620" width="80" height="40" as="geometry" />
        </mxCell>
        <mxCell id="uX4t5nVAF5KKWgH_RehO-14" value="" style="edgeStyle=orthogonalEdgeStyle;rounded=0;orthogonalLoop=1;jettySize=auto;html=1;" edge="1" parent="WIyWlLk6GJQsqaUBKTNV-1" source="uX4t5nVAF5KKWgH_RehO-11" target="uX4t5nVAF5KKWgH_RehO-13">
          <mxGeometry relative="1" as="geometry" />
        </mxCell>
        <mxCell id="uX4t5nVAF5KKWgH_RehO-11" value="Tænd løsning" style="rounded=0;whiteSpace=wrap;html=1;" vertex="1" parent="WIyWlLk6GJQsqaUBKTNV-1">
          <mxGeometry x="354" y="240" width="120" height="60" as="geometry" />
        </mxCell>
        <mxCell id="uX4t5nVAF5KKWgH_RehO-16" value="" style="edgeStyle=orthogonalEdgeStyle;rounded=0;orthogonalLoop=1;jettySize=auto;html=1;" edge="1" parent="WIyWlLk6GJQsqaUBKTNV-1" source="uX4t5nVAF5KKWgH_RehO-13" target="uX4t5nVAF5KKWgH_RehO-15">
          <mxGeometry relative="1" as="geometry" />
        </mxCell>
        <mxCell id="uX4t5nVAF5KKWgH_RehO-13" value="INA219:&lt;br&gt;Mål strøm&amp;nbsp; fra batteri" style="rounded=0;whiteSpace=wrap;html=1;" vertex="1" parent="WIyWlLk6GJQsqaUBKTNV-1">
          <mxGeometry x="354" y="330" width="120" height="60" as="geometry" />
        </mxCell>
        <mxCell id="uX4t5nVAF5KKWgH_RehO-17" value="" style="edgeStyle=orthogonalEdgeStyle;rounded=0;orthogonalLoop=1;jettySize=auto;html=1;" edge="1" parent="WIyWlLk6GJQsqaUBKTNV-1" source="uX4t5nVAF5KKWgH_RehO-15" target="uX4t5nVAF5KKWgH_RehO-4">
          <mxGeometry relative="1" as="geometry" />
        </mxCell>
        <mxCell id="uX4t5nVAF5KKWgH_RehO-15" value="Udregn batteri-% og resterende levetid baseret på strømforbrug" style="rounded=0;whiteSpace=wrap;html=1;" vertex="1" parent="WIyWlLk6GJQsqaUBKTNV-1">
          <mxGeometry x="354" y="420" width="120" height="80" as="geometry" />
        </mxCell>
      </root>
    </mxGraphModel>
  </diagram>
</mxfile>
